<?xml version="1.0" encoding="UTF-8" standalone="no"?>
<!DOCTYPE svg PUBLIC "-//W3C//DTD SVG 20010904//EN"
              "http://www.w3.org/TR/2001/REC-SVG-20010904/DTD/svg10.dtd">

<svg xmlns="http://www.w3.org/2000/svg"
     width="4.88889in" height="1.69444in"
     viewBox="0 0 352 122">
  <path id="Selection"
        fill="black" stroke="black" stroke-width="1"
        d="M 40.00,17.44
           C 48.22,16.38 59.42,17.49 67.00,20.90
             102.39,36.83 103.13,87.30 70.00,106.05
             61.40,110.92 52.54,111.11 43.00,111.00
             8.79,110.59 -9.39,72.28 4.32,43.00
             11.37,27.96 24.30,20.34 40.00,17.44 Z
           M 40.00,22.30
           C 20.45,26.11 5.47,41.78 4.09,62.00
             2.39,86.86 26.10,109.95 51.00,106.71
             66.01,104.76 78.33,96.69 85.17,83.00
             95.05,63.23 86.65,36.77 67.00,26.67
             58.37,22.23 49.51,21.35 40.00,22.30 Z
           M 11.00,67.00
           C 9.70,66.27 8.91,66.17 8.03,64.71
             5.95,61.23 9.55,50.62 11.10,47.00
             17.78,31.40 33.06,25.01 49.00,25.00
             47.95,31.09 45.04,29.36 40.00,30.53
             36.17,31.41 30.08,34.00 27.00,36.39
             20.05,41.79 14.99,49.46 12.90,58.00
             12.90,58.00 11.00,67.00 11.00,67.00 Z
           M 17.00,67.00
           C 11.04,55.49 23.44,39.25 34.00,34.98
             38.80,33.03 43.92,33.00 49.00,33.00
             49.00,33.00 49.00,37.00 49.00,37.00
             38.01,37.92 28.20,42.83 22.99,53.00
             20.13,58.59 21.22,62.74 17.00,67.00 Z
           M 49.00,45.00
           C 41.73,45.61 35.77,47.69 31.55,54.02
             27.36,60.29 28.31,65.73 25.15,65.66
             23.37,65.62 23.14,63.25 23.14,61.96
             23.14,58.55 25.14,53.83 26.97,51.00
             32.84,41.91 39.10,41.01 49.00,41.00
             49.00,41.00 49.00,45.00 49.00,45.00 Z
           M 110.00,43.00
           C 110.00,43.00 119.00,43.00 119.00,43.00
             119.00,43.00 122.00,65.00 122.00,65.00
             122.00,65.00 124.00,43.00 124.00,43.00
             124.00,43.00 133.00,43.00 133.00,43.00
             133.00,43.00 128.00,87.00 128.00,87.00
             128.00,87.00 116.60,85.98 116.60,85.98
             116.60,85.98 114.00,75.00 114.00,75.00
             114.00,75.00 110.00,43.00 110.00,43.00 Z
           M 293.00,91.00
           C 293.00,91.00 286.00,87.99 286.00,87.99
             281.09,86.19 277.19,87.75 274.17,81.98
             272.79,79.34 273.00,75.91 273.00,73.00
             273.00,73.00 273.00,60.00 273.00,60.00
             273.00,51.34 272.84,41.84 285.00,43.20
             289.28,43.68 292.03,45.87 293.35,50.00
             294.10,52.37 294.00,55.51 294.00,58.00
             294.01,66.21 295.15,76.43 292.00,84.00
             292.00,84.00 296.00,85.00 296.00,85.00
             296.00,85.00 293.00,91.00 293.00,91.00 Z
           M 134.00,44.00
           C 134.00,44.00 143.00,44.00 143.00,44.00
             143.00,44.00 143.00,87.00 143.00,87.00
             143.00,87.00 134.00,87.00 134.00,87.00
             134.00,87.00 134.00,44.00 134.00,44.00 Z
           M 146.00,44.00
           C 157.71,44.01 154.60,44.71 158.00,55.00
             158.00,55.00 158.00,44.00 158.00,44.00
             158.00,44.00 168.00,44.00 168.00,44.00
             168.00,44.00 168.00,87.00 168.00,87.00
             168.00,87.00 158.00,87.00 158.00,87.00
             158.00,87.00 155.00,73.00 155.00,73.00
             155.00,73.00 155.00,87.00 155.00,87.00
             155.00,87.00 146.00,87.00 146.00,87.00
             146.00,87.00 146.00,44.00 146.00,44.00 Z
           M 169.00,44.00
           C 169.00,44.00 178.00,44.00 178.00,44.00
             178.00,44.00 180.00,54.00 180.00,54.00
             181.36,43.74 181.43,44.01 191.00,44.00
             188.28,63.28 184.00,62.88 184.00,87.00
             184.00,87.00 176.00,87.00 176.00,87.00
             176.00,87.00 176.00,79.00 176.00,79.00
             176.00,79.00 169.00,44.00 169.00,44.00 Z
           M 192.00,44.00
           C 192.00,44.00 201.00,44.00 201.00,44.00
             201.00,44.00 201.00,79.00 201.00,79.00
             201.00,79.00 210.00,79.00 210.00,79.00
             210.00,79.00 210.00,87.00 210.00,87.00
             210.00,87.00 192.00,87.00 192.00,87.00
             192.00,87.00 192.00,44.00 192.00,44.00 Z
           M 208.00,44.00
           C 208.00,44.00 227.00,44.00 227.00,44.00
             227.00,44.00 227.00,53.00 227.00,53.00
             227.00,53.00 222.00,53.00 222.00,53.00
             222.00,53.00 222.00,87.00 222.00,87.00
             222.00,87.00 213.74,86.01 213.74,86.01
             213.74,86.01 212.17,78.01 212.17,78.01
             212.17,78.01 213.00,54.00 213.00,54.00
             213.00,54.00 208.00,53.00 208.00,53.00
             208.00,53.00 208.00,44.00 208.00,44.00 Z
           M 228.00,44.00
           C 228.00,44.00 238.00,44.00 238.00,44.00
             238.00,44.00 238.00,59.00 238.00,59.00
             238.00,59.00 241.00,59.00 241.00,59.00
             241.00,59.00 241.00,44.00 241.00,44.00
             241.00,44.00 250.00,44.00 250.00,44.00
             250.00,44.00 250.00,87.00 250.00,87.00
             250.00,87.00 241.00,87.00 241.00,87.00
             241.00,87.00 241.00,67.00 241.00,67.00
             241.00,67.00 238.00,67.00 238.00,67.00
             238.00,67.00 238.00,87.00 238.00,87.00
             238.00,87.00 228.00,87.00 228.00,87.00
             228.00,87.00 228.00,44.00 228.00,44.00 Z
           M 253.00,44.00
           C 253.00,44.00 271.00,44.00 271.00,44.00
             271.00,44.00 271.00,53.00 271.00,53.00
             271.00,53.00 262.00,53.00 262.00,53.00
             262.00,53.00 262.00,60.00 262.00,60.00
             262.00,60.00 270.00,60.00 270.00,60.00
             270.00,60.00 270.00,69.00 270.00,69.00
             270.00,69.00 262.00,69.00 262.00,69.00
             262.00,69.00 262.00,78.00 262.00,78.00
             262.00,78.00 271.00,78.00 271.00,78.00
             271.00,78.00 271.00,87.00 271.00,87.00
             271.00,87.00 253.00,87.00 253.00,87.00
             253.00,87.00 253.00,44.00 253.00,44.00 Z
           M 297.24,44.00
           C 297.24,44.00 306.00,44.00 306.00,44.00
             306.00,52.61 304.35,72.07 308.00,79.00
             308.00,79.00 309.00,44.00 309.00,44.00
             309.00,44.00 318.00,44.00 318.00,44.00
             318.00,44.00 318.00,75.00 318.00,75.00
             317.91,81.36 316.22,86.19 309.00,86.89
             302.91,87.48 298.83,85.16 297.24,79.00
             297.24,79.00 297.24,44.00 297.24,44.00 Z
           M 321.00,44.00
           C 321.00,44.00 338.00,44.00 338.00,44.00
             338.00,44.00 338.00,53.00 338.00,53.00
             338.00,53.00 330.00,53.00 330.00,53.00
             330.00,53.00 330.00,60.00 330.00,60.00
             330.00,60.00 338.00,60.00 338.00,60.00
             338.00,60.00 338.00,69.00 338.00,69.00
             338.00,69.00 330.00,69.00 330.00,69.00
             330.00,69.00 330.00,78.00 330.00,78.00
             330.00,78.00 339.00,78.00 339.00,78.00
             339.00,78.00 339.00,87.00 339.00,87.00
             339.00,87.00 321.00,87.00 321.00,87.00
             321.00,87.00 321.00,44.00 321.00,44.00 Z
           M 45.00,48.48
           C 48.37,48.29 51.94,48.54 55.00,50.16
             68.42,57.29 64.81,81.30 45.00,79.90
             31.77,78.97 28.18,64.52 33.09,56.00
             36.05,50.85 39.49,49.47 45.00,48.48 Z
           M 284.00,52.00
           C 283.03,53.32 282.73,53.33 282.29,55.11
             281.30,59.17 281.84,74.92 283.00,79.00
             286.33,73.86 285.47,58.04 284.00,52.00 Z
           M 45.00,53.41
           C 29.34,58.36 35.74,78.15 50.00,74.58
             61.76,71.64 60.53,52.10 45.00,53.41 Z
           M 48.00,67.00
           C 43.89,64.57 44.51,62.78 49.00,62.00
             49.00,62.00 48.00,67.00 48.00,67.00 Z
           M 67.50,63.17
           C 72.86,62.47 70.38,70.14 69.29,73.00
             66.98,79.05 61.18,84.77 55.00,86.78
             53.51,87.26 41.99,89.34 45.82,84.54
             47.03,83.04 51.06,82.59 53.00,81.87
             56.63,80.51 59.92,78.15 62.15,74.96
             64.74,71.24 64.63,66.48 67.50,63.17 Z
           M 44.00,93.00
           C 49.65,89.97 51.68,91.07 57.00,88.65
             65.19,84.92 70.92,77.64 72.99,69.00
             73.37,67.41 74.48,61.26 77.45,63.17
             80.34,65.02 77.21,74.51 76.10,77.00
             72.04,86.11 64.83,92.66 55.00,94.79
             49.95,95.88 47.89,96.82 44.00,93.00 Z
           M 82.69,63.04
           C 87.92,61.53 86.61,67.92 86.00,71.00
             84.60,78.00 80.84,86.70 75.82,91.83
             69.37,98.41 62.82,101.29 54.00,103.00
             52.50,103.29 43.54,104.83 45.49,100.52
             46.24,98.86 51.28,98.56 53.00,98.18
             58.46,96.99 64.61,94.14 68.91,90.57
             73.80,86.51 77.54,81.08 79.41,75.00
             80.58,71.16 80.59,66.00 82.69,63.04 Z" />
</svg>
