<svg xmlns="http://www.w3.org/2000/svg" viewBox="0 0 361 91.34"><defs><style>.cls-1{fill:#060505;}.cls-2{fill:#090808;}.cls-3{fill:#231f20;}.cls-4{fill:#1a1818;}</style></defs><g id="Layer_2" data-name="Layer 2"><g id="Layer_1-2" data-name="Layer 1"><path class="cls-1" d="M47.36,91.34q-.77,0-1.53,0A43.58,43.58,0,0,1,14,78.45,45.87,45.87,0,0,1,0,45.54,47,47,0,0,1,12.68,14.1,45.15,45.15,0,0,1,46.19,0,45.22,45.22,0,0,1,92,45.92,45.07,45.07,0,0,1,78.12,78.68,44.71,44.71,0,0,1,47.36,91.34Zm-1.51-3.73h.06A40.89,40.89,0,0,0,75.56,76a41.39,41.39,0,0,0,12.75-30.1A41.53,41.53,0,0,0,46.17,3.69H46A41.49,41.49,0,0,0,15.37,16.63,43.22,43.22,0,0,0,3.69,45.57,42.19,42.19,0,0,0,16.56,75.81,39.93,39.93,0,0,0,45.78,87.62Z"/><path class="cls-2" d="M45.93,60.82h-.12A15.4,15.4,0,0,1,30.68,45.54c.07-8.22,6.71-14.57,15.45-14.77A14.79,14.79,0,0,1,61,45.71a15.26,15.26,0,0,1-4.46,10.77A15,15,0,0,1,45.93,60.82Zm.49-27h-.23C39.25,34,34,38.94,33.92,45.34a11.78,11.78,0,0,0,3.49,8.36,12,12,0,0,0,8.38,3.61,11.66,11.66,0,0,0,8.41-3.39,11.94,11.94,0,0,0,3.49-8.47v0A11.48,11.48,0,0,0,46.42,33.84Z"/><path class="cls-3" d="M49.38,83.41C48,83,45.2,84.71,44.89,82.09c-.37-3.12,2.67-2.37,4.59-2.46,15.8-.74,29.67-14.68,30.81-31,.06-.79,0-1.59.06-2.38a1.94,1.94,0,0,1,1.8-1.89c1.16,0,1.92.8,2,2.13a26.29,26.29,0,0,1-1,8.48C79.52,70.18,66.06,82.59,49.38,83.41Z"/><path class="cls-3" d="M8,42.14C8.27,27,21.74,11.63,37.54,8.61c2.33-.45,4.6-1.26,7.06-1,1.43.14,2.72.52,2.77,2s-1.32,1.83-2.72,1.94c-7.1.57-13.75,2.49-19.47,6.87A32.59,32.59,0,0,0,11.88,43a15,15,0,0,1-.05,1.9,2.23,2.23,0,0,1-2.31,2C7.84,46.92,8,45.62,8,44.53,7.94,43.73,8,42.94,8,42.14Z"/><path class="cls-3" d="M15.42,43.55C16.24,29.46,26,17.91,41.66,15.31a3.43,3.43,0,0,1,1,0c1.78.17,4.51-.79,4.66,1.86.15,2.35-2.4,1.81-4.09,2-13.11,1.38-22.61,11-23.62,24,0,.16,0,.32,0,.47-.12,1.69-.47,3.45-2.58,3.28S15.34,45,15.42,43.55Z"/><path class="cls-3" d="M76.49,48.53c-.47,12-9.71,24.54-24.37,27.18a31.34,31.34,0,0,1-5.19.65,2,2,0,0,1-2.25-2c-.08-1.22.81-1.71,1.72-2A20,20,0,0,1,49.69,72c11.94-1,22.16-11.44,22.9-23.44.11-1.74-.21-4.11,2.07-4.11C77.15,44.43,76.35,46.91,76.49,48.53Z"/><path class="cls-3" d="M68.9,48.2C68.67,57.32,61.26,66,52.15,68.06c-1.38.32-2.76.69-4.15.9-1.57.24-3-.16-3.24-1.94s1.31-1.85,2.56-2c4.27-.69,8.4-1.69,11.65-4.84,3.4-3.3,5.84-7.05,6.06-12,.08-1.71.13-4.06,2.49-3.74C69.56,44.7,68.71,47,68.9,48.2Z"/><path class="cls-3" d="M43.74,22.93a10.05,10.05,0,0,1,2.34.21,2.21,2.21,0,0,1,1.31,1.25,1.65,1.65,0,0,1-1.1,1.89,9.42,9.42,0,0,1-2.78.48,18.16,18.16,0,0,0-16.36,15.3c-.26,1.71.33,5-2.46,4.7-3.2-.39-1.71-3.24-1.45-5.36C24.37,32,33.6,23.31,43.74,22.93Z"/><circle class="cls-4" cx="45.85" cy="45.8" r="2.01"/><path class="cls-3" d="M129.41,64.16H117.05l-5.59-41h9.14l2.55,27.19,2.71-27.19H135Z"/><path class="cls-3" d="M137.47,64.16v-41h8.75v41Z"/><path class="cls-3" d="M173,23.14v41h-8.86l-4.53-20.53V64.16H150.7v-41H160l4.17,19.62V23.14Z"/><path class="cls-3" d="M190.54,64.16H182V50.66l-7.24-27.52h9L186.26,37l2.53-13.9h9l-7.21,27.52Z"/><path class="cls-3" d="M199.55,64.16v-41h9.06v33h9.33v8Z"/><path class="cls-3" d="M218.66,23.14h19.82V31H233.1V64.16H224V31h-5.38Z"/><path class="cls-3" d="M250.28,45.54V64.16h-9v-41h9V37.79h4.27V23.14h9v41h-9V45.54Z"/><path class="cls-3" d="M268,64.16v-41h18.13v8h-8.91v8h8.55v7.7h-8.55v9.35h9.5v8Z"/><path class="cls-3" d="M300.87,64.62a14.74,14.74,0,0,1-5.12-.82,8.34,8.34,0,0,1-3.49-2.36,10,10,0,0,1-1.93-3.54,15,15,0,0,1-.63-4.51V33.62c0-3.42.93-6.07,2.78-8s4.66-2.85,8.42-2.85,6.52.95,8.37,2.85,2.78,4.55,2.78,8V53.39q0,5.05-2.52,8l3.88,2.29-3.06,4.89-7.21-4.17A21.31,21.31,0,0,1,300.87,64.62Zm0-8.16a1.68,1.68,0,0,0,1.63-1.08,9.24,9.24,0,0,0,.43-3.45V34.27c0-.11,0-.33,0-.67a4,4,0,0,0-.09-.72c0-.14-.1-.34-.16-.6a1.37,1.37,0,0,0-.25-.58c-.11-.13-.24-.27-.38-.41a1.07,1.07,0,0,0-.51-.31,2.53,2.53,0,0,0-.7-.09,2.58,2.58,0,0,0-.7.09,1.2,1.2,0,0,0-.55.31,4.81,4.81,0,0,0-.38.42,1.49,1.49,0,0,0-.26.58l-.15.61a2.61,2.61,0,0,0-.09.69q0,.46,0,.66V51.82c0,.38,0,.68,0,.9s0,.55.07,1a4.13,4.13,0,0,0,.19,1,7.45,7.45,0,0,0,.37.84,1.67,1.67,0,0,0,.63.66A2,2,0,0,0,300.87,56.46Z"/><path class="cls-3" d="M315.89,53.29V23.14h8.8V52.67c0,.45,0,.8,0,1.06a7.46,7.46,0,0,0,.12,1.05,3.3,3.3,0,0,0,.34,1.06,2,2,0,0,0,.66.68,1.86,1.86,0,0,0,1.08.3,2.28,2.28,0,0,0,.94-.18,1.48,1.48,0,0,0,.63-.56,4.48,4.48,0,0,0,.37-.72,3,3,0,0,0,.19-.92c0-.39.06-.69.07-.89s0-.5,0-.88V23.14h8.81V53.29c0,3.71-.89,6.52-2.67,8.45s-4.54,2.87-8.3,2.85-6.63-.93-8.41-2.85S315.89,57,315.89,53.29Z"/><path class="cls-3" d="M342.28,64.16v-41h18.13v8H351.5v8h8.55v7.7H351.5v9.35H361v8Z"/></g></g></svg>